<svg width="20" height="20" viewBox="0 0 20 20" fill="none" xmlns="http://www.w3.org/2000/svg">
<g clip-path="url(#clip0_1277_7152)">
<path d="M15.3936 8.01821L7.10131 16.7678C7.0758 16.7944 7.05846 16.8284 7.05156 16.8655C7.04466 16.9026 7.04851 16.9411 7.06261 16.9758C7.07621 17.0107 7.09932 17.0405 7.129 17.0615C7.15868 17.0825 7.1936 17.0937 7.22934 17.0937L8.85684 17.0937L8.85684 16.3305C8.85684 16.2799 8.87589 16.2313 8.90981 16.1956C8.94372 16.1598 8.98972 16.1397 9.03768 16.1397C9.08564 16.1397 9.13163 16.1598 9.16554 16.1956C9.19946 16.2313 9.21851 16.2799 9.21851 16.3305L9.21851 17.0937L9.58018 17.0937L9.58018 16.3305C9.58018 16.2799 9.59923 16.2313 9.63314 16.1956C9.66706 16.1598 9.71305 16.1397 9.76101 16.1397C9.80897 16.1397 9.85497 16.1598 9.88888 16.1956C9.92279 16.2313 9.94185 16.2799 9.94185 16.3305L9.94185 17.0937L10.3035 17.0937L10.3035 16.3305C10.3035 16.2799 10.3226 16.2313 10.3565 16.1956C10.3904 16.1598 10.4364 16.1397 10.4843 16.1397C10.5323 16.1397 10.5783 16.1598 10.6122 16.1956C10.6461 16.2313 10.6652 16.2799 10.6652 16.3305L10.6652 17.0937L11.0268 17.0937L11.0268 16.3305C11.0268 16.2799 11.0459 16.2313 11.0798 16.1956C11.1137 16.1598 11.1597 16.1397 11.2077 16.1397C11.2556 16.1397 11.3016 16.1598 11.3356 16.1956C11.3695 16.2313 11.3885 16.2799 11.3885 16.3305L11.3885 17.0937L11.7502 17.0937L11.7502 16.3305C11.7502 16.2799 11.7692 16.2313 11.8032 16.1956C11.8371 16.1598 11.8831 16.1397 11.931 16.1397C11.979 16.1397 12.025 16.1598 12.0589 16.1956C12.0928 16.2313 12.1119 16.2799 12.1119 16.3305L12.1119 17.0937L12.4735 17.0937L12.4735 16.3305C12.4735 16.2799 12.4926 16.2313 12.5265 16.1956C12.5604 16.1598 12.6064 16.1397 12.6544 16.1397C12.7023 16.1397 12.7483 16.1598 12.7822 16.1956C12.8161 16.2313 12.8352 16.2799 12.8352 16.3305L12.8352 17.0937L13.1969 17.0937L13.1969 16.3305C13.1969 16.2799 13.2159 16.2313 13.2498 16.1956C13.2837 16.1598 13.3297 16.1397 13.3777 16.1397C13.4257 16.1397 13.4716 16.1598 13.5056 16.1956C13.5395 16.2313 13.5585 16.2799 13.5585 16.3305L13.5585 17.0937L13.9202 17.0937L13.9202 16.3305C13.9202 16.2799 13.9392 16.2313 13.9732 16.1956C14.0071 16.1598 14.0531 16.1397 14.101 16.1397C14.149 16.1397 14.195 16.1598 14.2289 16.1956C14.2628 16.2313 14.2819 16.2799 14.2819 16.3305L14.2819 17.0937L14.6435 17.0937L14.6435 16.3305C14.6435 16.2799 14.6626 16.2313 14.6965 16.1956C14.7304 16.1598 14.7764 16.1397 14.8244 16.1397C14.8723 16.1397 14.9183 16.1598 14.9522 16.1956C14.9861 16.2313 15.0052 16.2799 15.0052 16.3305L15.0052 17.0937L15.5477 17.0937C15.5957 17.0937 15.6417 17.0736 15.6756 17.0379C15.7095 17.0021 15.7285 16.9535 15.7285 16.9029L15.7285 8.11781C15.7285 8.07628 15.7156 8.0359 15.6918 8.00281C15.668 7.96971 15.6346 7.94571 15.5968 7.93444C15.5589 7.92318 15.5185 7.92526 15.4819 7.94038C15.4452 7.95549 15.4142 7.98282 15.3936 8.01821ZM14.2819 15.5672L10.2854 15.5672L14.2819 11.3498L14.2819 15.5672Z" fill="#0f6cbd"/>
</g>
<path fill-rule="evenodd" clip-rule="evenodd" d="M11.7667 10.3517L11.6245 10.0455H12.0729L12.0729 10.0455L12.0729 10.0455H12.7458C12.8085 10.0455 12.8686 10.0207 12.913 9.97669C12.9573 9.93265 12.9822 9.87292 12.9822 9.81063C12.9822 9.74834 12.9573 9.68861 12.913 9.64457C12.8686 9.60052 12.8085 9.57578 12.7458 9.57578H11.406L10.6974 8.0502C10.9451 7.67914 11.0912 7.23527 11.0912 6.75759C11.0912 5.71016 10.392 4.83042 9.43659 4.52887V3.23485C9.43659 3.17256 9.41168 3.11283 9.36735 3.06879C9.32302 3.02474 9.2629 3 9.20021 3H8.25472C8.19203 3 8.13191 3.02474 8.08758 3.06879C8.04325 3.11283 8.01835 3.17256 8.01835 3.23485V4.52887C7.06293 4.83042 6.36373 5.71016 6.36373 6.75759C6.36373 7.23527 6.50981 7.67914 6.75753 8.05067L6.04888 9.57578H4.70912C4.64643 9.57578 4.58631 9.60052 4.54198 9.64457C4.49765 9.68861 4.47275 9.74834 4.47275 9.81063C4.47275 9.87292 4.49765 9.93265 4.54198 9.97669C4.58631 10.0207 4.64643 10.0455 4.70912 10.0455H5.83095L4.02175 13.9393C4.00739 13.9702 3.99997 14.0039 4 14.0379V16.8561C4.00008 16.9094 4.01842 16.9611 4.052 17.0027C4.08558 17.0443 4.1324 17.0733 4.18476 17.0849C4.23713 17.0966 4.29192 17.0902 4.34014 17.0668C4.38835 17.0434 4.42711 17.0044 4.45006 16.9562L7.72335 10.0455H9.73158L10.4841 11.6343L11.7667 10.3517ZM8.72747 5.34849C9.50939 5.34849 10.1457 5.98071 10.1457 6.75759C10.1457 7.53447 9.50939 8.16668 8.72747 8.16668C7.94554 8.16668 7.30923 7.53447 7.30923 6.75759C7.30923 5.98071 7.94554 5.34849 8.72747 5.34849ZM7.94602 9.57578L8.19894 9.04173C8.36912 9.08072 8.54499 9.10608 8.72747 9.10608C8.90995 9.10608 9.08581 9.08072 9.25647 9.04173L9.50939 9.57578H7.94602ZM8.72756 7.69698C9.24974 7.69698 9.67305 7.27639 9.67305 6.75758C9.67305 6.23877 9.24974 5.81818 8.72756 5.81818C8.20538 5.81818 7.78206 6.23877 7.78206 6.75758C7.78206 7.27639 8.20538 7.69698 8.72756 7.69698Z" fill="#0f6cbd"/>
<defs>
<clipPath id="clip0_1277_7152">
<rect width="9.15912" height="8.68003" fill="white" transform="translate(7.04846 17.0898) rotate(-90)"/>
</clipPath>
</defs>
</svg>
